<svg width="10" height="10" viewBox="0 0 10 10" fill="none" xmlns="http://www.w3.org/2000/svg">
<path fill-rule="evenodd" clip-rule="evenodd" d="M0.17229 0.17229C0.40201 -0.0574301 0.77446 -0.0574301 1.00418 0.17229L5 4.16811L8.99582 0.17229C9.22554 -0.0574301 9.59799 -0.0574301 9.82771 0.17229C10.0574 0.40201 10.0574 0.77446 9.82771 1.00418L5.83189 5L9.82771 8.99582C10.0574 9.22554 10.0574 9.59799 9.82771 9.82771C9.59799 10.0574 9.22554 10.0574 8.99582 9.82771L5 5.83189L1.00418 9.82771C0.77446 10.0574 0.40201 10.0574 0.17229 9.82771C-0.0574301 9.59799 -0.0574301 9.22554 0.17229 8.99582L4.16811 5L0.17229 1.00418C-0.0574301 0.77446 -0.0574301 0.40201 0.17229 0.17229Z" fill="#B0B0B0"/>
</svg>
