<svg width="24" height="24" viewBox="0 0 24 24" fill="none" xmlns="http://www.w3.org/2000/svg">
<path fill-rule="evenodd" clip-rule="evenodd" d="M16.1667 2.5C14.6019 2.5 13.3333 3.77599 13.3333 5.35C13.3333 5.51777 13.3477 5.68216 13.3754 5.84198L6.65594 9.81785C6.16327 9.40107 5.52745 9.15 4.83333 9.15C3.26853 9.15 2 10.426 2 12C2 13.574 3.26853 14.85 4.83333 14.85C5.6175 14.85 6.32726 14.5296 6.84026 14.0118L13.4296 17.9107C13.3668 18.1464 13.3333 18.3943 13.3333 18.65C13.3333 20.224 14.6019 21.5 16.1667 21.5C17.7315 21.5 19 20.224 19 18.65C19 17.076 17.7315 15.8 16.1667 15.8C15.4726 15.8 14.8367 16.0511 14.3441 16.4678L7.62461 12.492C7.65226 12.3321 7.66667 12.1678 7.66667 12C7.66667 11.7443 7.63319 11.4965 7.5704 11.2607L14.1598 7.36178C14.6728 7.87957 15.3825 8.2 16.1667 8.2C17.7315 8.2 19 6.92401 19 5.35C19 3.77599 17.7315 2.5 16.1667 2.5ZM15.0333 5.35C15.0333 4.7204 15.5407 4.21 16.1667 4.21C16.7926 4.21 17.3 4.7204 17.3 5.35C17.3 5.9796 16.7926 6.49 16.1667 6.49C15.5407 6.49 15.0333 5.9796 15.0333 5.35ZM4.83333 10.86C4.20741 10.86 3.7 11.3704 3.7 12C3.7 12.6296 4.20741 13.14 4.83333 13.14C5.45926 13.14 5.96667 12.6296 5.96667 12C5.96667 11.3704 5.45926 10.86 4.83333 10.86ZM15.0333 18.65C15.0333 18.0204 15.5407 17.51 16.1667 17.51C16.7926 17.51 17.3 18.0204 17.3 18.65C17.3 19.2796 16.7926 19.79 16.1667 19.79C15.5407 19.79 15.0333 19.2796 15.0333 18.65Z" fill="#303030"/>
</svg>
